<svg width="1404" height="1872" viewBox="0 0 1404 1872" fill="none" xmlns="http://www.w3.org/2000/svg">
<rect width="1404" height="1872" fill="white"/>
<line x1="120" y1="114.5" x2="1404" y2="114.5" stroke="black" stroke-opacity="0.25" stroke-dasharray="2 2"/>
<line x1="120" y1="214.5" x2="1404" y2="214.5" stroke="black" stroke-opacity="0.25" stroke-dasharray="2 2"/>
<line x1="120" y1="314.5" x2="1404" y2="314.5" stroke="black" stroke-opacity="0.25" stroke-dasharray="2 2"/>
<line x1="120" y1="414.5" x2="1404" y2="414.5" stroke="black" stroke-opacity="0.25" stroke-dasharray="2 2"/>
<line x1="120" y1="514.5" x2="1404" y2="514.5" stroke="black" stroke-opacity="0.25" stroke-dasharray="2 2"/>
<line x1="120" y1="614.5" x2="1404" y2="614.5" stroke="black" stroke-opacity="0.25" stroke-dasharray="2 2"/>
<line x1="120" y1="714.5" x2="1404" y2="714.5" stroke="black" stroke-opacity="0.25" stroke-dasharray="2 2"/>
<line x1="120" y1="814.5" x2="1404" y2="814.5" stroke="black" stroke-opacity="0.25" stroke-dasharray="2 2"/>
<line x1="120" y1="914.5" x2="1404" y2="914.5" stroke="black" stroke-opacity="0.25" stroke-dasharray="2 2"/>
<line x1="120" y1="1014.5" x2="1404" y2="1014.5" stroke="black" stroke-opacity="0.25" stroke-dasharray="2 2"/>
<line x1="120" y1="1114.5" x2="1404" y2="1114.5" stroke="black" stroke-opacity="0.25" stroke-dasharray="2 2"/>
<line x1="120" y1="1214.5" x2="1404" y2="1214.5" stroke="black" stroke-opacity="0.25" stroke-dasharray="2 2"/>
<line x1="120" y1="1314.5" x2="1404" y2="1314.5" stroke="black" stroke-opacity="0.25" stroke-dasharray="2 2"/>
<line x1="120" y1="1414.5" x2="1404" y2="1414.5" stroke="black" stroke-opacity="0.25" stroke-dasharray="2 2"/>
<line x1="120" y1="1514.5" x2="1404" y2="1514.5" stroke="black" stroke-opacity="0.25" stroke-dasharray="2 2"/>
<line x1="120" y1="1614.5" x2="1404" y2="1614.5" stroke="black" stroke-opacity="0.25" stroke-dasharray="2 2"/>
<line x1="120" y1="1714.5" x2="1404" y2="1714.5" stroke="black" stroke-opacity="0.25" stroke-dasharray="2 2"/>
<line x1="120" y1="64.5" x2="1404" y2="64.5" stroke="black" stroke-opacity="0.5"/>
<line x1="120" y1="164.5" x2="1404" y2="164.5" stroke="black" stroke-opacity="0.5"/>
<line x1="120" y1="264.5" x2="1404" y2="264.5" stroke="black" stroke-opacity="0.5"/>
<line x1="120" y1="364.5" x2="1404" y2="364.5" stroke="black" stroke-opacity="0.5"/>
<line x1="120" y1="464.5" x2="1404" y2="464.5" stroke="black" stroke-opacity="0.5"/>
<line x1="120" y1="564.5" x2="1404" y2="564.5" stroke="black" stroke-opacity="0.5"/>
<line x1="120" y1="664.5" x2="1404" y2="664.5" stroke="black" stroke-opacity="0.5"/>
<line x1="120" y1="764.5" x2="1404" y2="764.5" stroke="black" stroke-opacity="0.5"/>
<line x1="120" y1="864.5" x2="1404" y2="864.5" stroke="black" stroke-opacity="0.5"/>
<line x1="120" y1="964.5" x2="1404" y2="964.5" stroke="black" stroke-opacity="0.5"/>
<line x1="120" y1="1064.5" x2="1404" y2="1064.5" stroke="black" stroke-opacity="0.5"/>
<line x1="120" y1="1164.5" x2="1404" y2="1164.5" stroke="black" stroke-opacity="0.5"/>
<line x1="120" y1="1264.5" x2="1404" y2="1264.5" stroke="black" stroke-opacity="0.5"/>
<line x1="120" y1="1364.5" x2="1404" y2="1364.5" stroke="black" stroke-opacity="0.5"/>
<line x1="120" y1="1464.5" x2="1404" y2="1464.5" stroke="black" stroke-opacity="0.5"/>
<line x1="120" y1="1564.5" x2="1404" y2="1564.5" stroke="black" stroke-opacity="0.5"/>
<line x1="120" y1="1664.5" x2="1404" y2="1664.5" stroke="black" stroke-opacity="0.5"/>
<line x1="120" y1="1764.5" x2="1404" y2="1764.5" stroke="black" stroke-opacity="0.5"/>
<line x1="120.5" y1="-2.18557e-08" x2="120.5" y2="1872" stroke="black" stroke-dasharray="2 2"/>
<path d="M50.2832 74.2344L39.6836 98H36.2734L46.8379 75.0781H32.9863V72.4062H50.2832V74.2344ZM66.0508 98C65.8633 97.625 65.7109 96.957 65.5938 95.9961C64.082 97.5664 62.2773 98.3516 60.1797 98.3516C58.3047 98.3516 56.7637 97.8242 55.5566 96.7695C54.3613 95.7031 53.7637 94.3555 53.7637 92.7266C53.7637 90.7461 54.5137 89.2109 56.0137 88.1211C57.5254 87.0195 59.6465 86.4688 62.377 86.4688H65.541V84.9746C65.541 83.8379 65.2012 82.9355 64.5215 82.2676C63.8418 81.5879 62.8398 81.248 61.5156 81.248C60.3555 81.248 59.3828 81.541 58.5977 82.127C57.8125 82.7129 57.4199 83.4219 57.4199 84.2539H54.1504C54.1504 83.3047 54.4844 82.3906 55.1523 81.5117C55.832 80.6211 56.7461 79.918 57.8945 79.4023C59.0547 78.8867 60.3262 78.6289 61.709 78.6289C63.9004 78.6289 65.6172 79.1797 66.8594 80.2812C68.1016 81.3711 68.7461 82.877 68.793 84.7988V93.5527C68.793 95.2988 69.0156 96.6875 69.4609 97.7188V98H66.0508ZM60.6543 95.5215C61.6738 95.5215 62.6406 95.2578 63.5547 94.7305C64.4688 94.2031 65.1309 93.5176 65.541 92.6738V88.7715H62.9922C59.0078 88.7715 57.0156 89.9375 57.0156 92.2695C57.0156 93.2891 57.3555 94.0859 58.0352 94.6602C58.7148 95.2344 59.5879 95.5215 60.6543 95.5215ZM76.9492 78.9805L77.0371 81.0898C78.4316 79.4492 80.3125 78.6289 82.6797 78.6289C85.3398 78.6289 87.1504 79.6484 88.1113 81.6875C88.7441 80.7734 89.5645 80.0352 90.5723 79.4727C91.5918 78.9102 92.793 78.6289 94.1758 78.6289C98.3477 78.6289 100.469 80.8379 100.539 85.2559V98H97.2871V85.4492C97.2871 84.0898 96.9766 83.0762 96.3555 82.4082C95.7344 81.7285 94.6914 81.3887 93.2266 81.3887C92.0195 81.3887 91.0176 81.752 90.2207 82.4785C89.4238 83.1934 88.9609 84.1602 88.832 85.3789V98H85.5625V85.5371C85.5625 82.7715 84.209 81.3887 81.502 81.3887C79.3691 81.3887 77.9102 82.2969 77.125 84.1133V98H73.873V78.9805H76.9492Z" fill="black" fill-opacity="0.66"/>
<path d="M49.2812 179.086C49.2812 180.363 48.9414 181.5 48.2617 182.496C47.5938 183.492 46.6855 184.271 45.5371 184.834C46.873 185.408 47.9277 186.246 48.7012 187.348C49.4863 188.449 49.8789 189.697 49.8789 191.092C49.8789 193.307 49.1289 195.07 47.6289 196.383C46.1406 197.695 44.1777 198.352 41.7402 198.352C39.2793 198.352 37.3047 197.695 35.8164 196.383C34.3398 195.059 33.6016 193.295 33.6016 191.092C33.6016 189.709 33.9766 188.461 34.7266 187.348C35.4883 186.234 36.5371 185.391 37.873 184.816C36.7363 184.254 35.8398 183.475 35.1836 182.479C34.5273 181.482 34.1992 180.352 34.1992 179.086C34.1992 176.93 34.8906 175.219 36.2734 173.953C37.6562 172.688 39.4785 172.055 41.7402 172.055C43.9902 172.055 45.8066 172.688 47.1895 173.953C48.584 175.219 49.2812 176.93 49.2812 179.086ZM46.627 191.021C46.627 189.592 46.1699 188.426 45.2559 187.523C44.3535 186.621 43.1699 186.17 41.7051 186.17C40.2402 186.17 39.0625 186.615 38.1719 187.506C37.293 188.396 36.8535 189.568 36.8535 191.021C36.8535 192.475 37.2812 193.617 38.1367 194.449C39.0039 195.281 40.2051 195.697 41.7402 195.697C43.2637 195.697 44.459 195.281 45.3262 194.449C46.1934 193.605 46.627 192.463 46.627 191.021ZM41.7402 174.727C40.4629 174.727 39.4258 175.125 38.6289 175.922C37.8438 176.707 37.4512 177.779 37.4512 179.139C37.4512 180.439 37.8379 181.494 38.6113 182.303C39.3965 183.1 40.4395 183.498 41.7402 183.498C43.041 183.498 44.0781 183.1 44.8516 182.303C45.6367 181.494 46.0293 180.439 46.0293 179.139C46.0293 177.838 45.625 176.777 44.8164 175.957C44.0078 175.137 42.9824 174.727 41.7402 174.727ZM66.0508 198C65.8633 197.625 65.7109 196.957 65.5938 195.996C64.082 197.566 62.2773 198.352 60.1797 198.352C58.3047 198.352 56.7637 197.824 55.5566 196.77C54.3613 195.703 53.7637 194.355 53.7637 192.727C53.7637 190.746 54.5137 189.211 56.0137 188.121C57.5254 187.02 59.6465 186.469 62.377 186.469H65.541V184.975C65.541 183.838 65.2012 182.936 64.5215 182.268C63.8418 181.588 62.8398 181.248 61.5156 181.248C60.3555 181.248 59.3828 181.541 58.5977 182.127C57.8125 182.713 57.4199 183.422 57.4199 184.254H54.1504C54.1504 183.305 54.4844 182.391 55.1523 181.512C55.832 180.621 56.7461 179.918 57.8945 179.402C59.0547 178.887 60.3262 178.629 61.709 178.629C63.9004 178.629 65.6172 179.18 66.8594 180.281C68.1016 181.371 68.7461 182.877 68.793 184.799V193.553C68.793 195.299 69.0156 196.688 69.4609 197.719V198H66.0508ZM60.6543 195.521C61.6738 195.521 62.6406 195.258 63.5547 194.73C64.4688 194.203 65.1309 193.518 65.541 192.674V188.771H62.9922C59.0078 188.771 57.0156 189.938 57.0156 192.27C57.0156 193.289 57.3555 194.086 58.0352 194.66C58.7148 195.234 59.5879 195.521 60.6543 195.521ZM76.9492 178.98L77.0371 181.09C78.4316 179.449 80.3125 178.629 82.6797 178.629C85.3398 178.629 87.1504 179.648 88.1113 181.688C88.7441 180.773 89.5645 180.035 90.5723 179.473C91.5918 178.91 92.793 178.629 94.1758 178.629C98.3477 178.629 100.469 180.838 100.539 185.256V198H97.2871V185.449C97.2871 184.09 96.9766 183.076 96.3555 182.408C95.7344 181.729 94.6914 181.389 93.2266 181.389C92.0195 181.389 91.0176 181.752 90.2207 182.479C89.4238 183.193 88.9609 184.16 88.832 185.379V198H85.5625V185.537C85.5625 182.771 84.209 181.389 81.502 181.389C79.3691 181.389 77.9102 182.297 77.125 184.113V198H73.873V178.98H76.9492Z" fill="black" fill-opacity="0.66"/>
<path d="M46.2227 286.75C45.543 287.559 44.7285 288.209 43.7793 288.701C42.8418 289.193 41.8105 289.439 40.6855 289.439C39.209 289.439 37.9199 289.076 36.8184 288.35C35.7285 287.623 34.8848 286.604 34.2871 285.291C33.6895 283.967 33.3906 282.508 33.3906 280.914C33.3906 279.203 33.7129 277.662 34.3574 276.291C35.0137 274.92 35.9395 273.871 37.1348 273.145C38.3301 272.418 39.7246 272.055 41.3184 272.055C43.8496 272.055 45.8418 273.004 47.2949 274.902C48.7598 276.789 49.4922 279.367 49.4922 282.637V283.586C49.4922 288.566 48.5078 292.205 46.5391 294.502C44.5703 296.787 41.5996 297.959 37.627 298.018H36.9941V295.275H37.6797C40.3633 295.229 42.4258 294.531 43.8672 293.184C45.3086 291.824 46.0938 289.68 46.2227 286.75ZM41.2129 286.75C42.3027 286.75 43.3047 286.416 44.2188 285.748C45.1445 285.08 45.8184 284.254 46.2402 283.27V281.969C46.2402 279.836 45.7773 278.102 44.8516 276.766C43.9258 275.43 42.7539 274.762 41.3359 274.762C39.9062 274.762 38.7578 275.312 37.8906 276.414C37.0234 277.504 36.5898 278.945 36.5898 280.738C36.5898 282.484 37.0059 283.926 37.8379 285.062C38.6816 286.188 39.8066 286.75 41.2129 286.75ZM66.0508 298C65.8633 297.625 65.7109 296.957 65.5938 295.996C64.082 297.566 62.2773 298.352 60.1797 298.352C58.3047 298.352 56.7637 297.824 55.5566 296.77C54.3613 295.703 53.7637 294.355 53.7637 292.727C53.7637 290.746 54.5137 289.211 56.0137 288.121C57.5254 287.02 59.6465 286.469 62.377 286.469H65.541V284.975C65.541 283.838 65.2012 282.936 64.5215 282.268C63.8418 281.588 62.8398 281.248 61.5156 281.248C60.3555 281.248 59.3828 281.541 58.5977 282.127C57.8125 282.713 57.4199 283.422 57.4199 284.254H54.1504C54.1504 283.305 54.4844 282.391 55.1523 281.512C55.832 280.621 56.7461 279.918 57.8945 279.402C59.0547 278.887 60.3262 278.629 61.709 278.629C63.9004 278.629 65.6172 279.18 66.8594 280.281C68.1016 281.371 68.7461 282.877 68.793 284.799V293.553C68.793 295.299 69.0156 296.688 69.4609 297.719V298H66.0508ZM60.6543 295.521C61.6738 295.521 62.6406 295.258 63.5547 294.73C64.4688 294.203 65.1309 293.518 65.541 292.674V288.771H62.9922C59.0078 288.771 57.0156 289.938 57.0156 292.27C57.0156 293.289 57.3555 294.086 58.0352 294.66C58.7148 295.234 59.5879 295.521 60.6543 295.521ZM76.9492 278.98L77.0371 281.09C78.4316 279.449 80.3125 278.629 82.6797 278.629C85.3398 278.629 87.1504 279.648 88.1113 281.688C88.7441 280.773 89.5645 280.035 90.5723 279.473C91.5918 278.91 92.793 278.629 94.1758 278.629C98.3477 278.629 100.469 280.838 100.539 285.256V298H97.2871V285.449C97.2871 284.09 96.9766 283.076 96.3555 282.408C95.7344 281.729 94.6914 281.389 93.2266 281.389C92.0195 281.389 91.0176 281.752 90.2207 282.479C89.4238 283.193 88.9609 284.16 88.832 285.379V298H85.5625V285.537C85.5625 282.771 84.209 281.389 81.502 281.389C79.3691 281.389 77.9102 282.297 77.125 284.113V298H73.873V278.98H76.9492Z" fill="black" fill-opacity="0.66"/>
<path d="M24.2324 398H20.9629V376.326L14.4062 378.734V375.781L23.7227 372.283H24.2324V398ZM49.8086 387.084C49.8086 390.893 49.1582 393.723 47.8574 395.574C46.5566 397.426 44.5234 398.352 41.7578 398.352C39.0273 398.352 37.0059 397.449 35.6934 395.645C34.3809 393.828 33.7012 391.121 33.6543 387.523V383.182C33.6543 379.42 34.3047 376.625 35.6055 374.797C36.9062 372.969 38.9453 372.055 41.7227 372.055C44.4766 372.055 46.5039 372.939 47.8047 374.709C49.1055 376.467 49.7734 379.186 49.8086 382.865V387.084ZM46.5566 382.637C46.5566 379.883 46.1699 377.879 45.3965 376.625C44.623 375.359 43.3984 374.727 41.7227 374.727C40.0586 374.727 38.8457 375.354 38.084 376.607C37.3223 377.861 36.9297 379.789 36.9062 382.391V387.594C36.9062 390.359 37.3047 392.404 38.1016 393.729C38.9102 395.041 40.1289 395.697 41.7578 395.697C43.3633 395.697 44.5527 395.076 45.3262 393.834C46.1113 392.592 46.5215 390.635 46.5566 387.963V382.637ZM66.0508 398C65.8633 397.625 65.7109 396.957 65.5938 395.996C64.082 397.566 62.2773 398.352 60.1797 398.352C58.3047 398.352 56.7637 397.824 55.5566 396.77C54.3613 395.703 53.7637 394.355 53.7637 392.727C53.7637 390.746 54.5137 389.211 56.0137 388.121C57.5254 387.02 59.6465 386.469 62.377 386.469H65.541V384.975C65.541 383.838 65.2012 382.936 64.5215 382.268C63.8418 381.588 62.8398 381.248 61.5156 381.248C60.3555 381.248 59.3828 381.541 58.5977 382.127C57.8125 382.713 57.4199 383.422 57.4199 384.254H54.1504C54.1504 383.305 54.4844 382.391 55.1523 381.512C55.832 380.621 56.7461 379.918 57.8945 379.402C59.0547 378.887 60.3262 378.629 61.709 378.629C63.9004 378.629 65.6172 379.18 66.8594 380.281C68.1016 381.371 68.7461 382.877 68.793 384.799V393.553C68.793 395.299 69.0156 396.688 69.4609 397.719V398H66.0508ZM60.6543 395.521C61.6738 395.521 62.6406 395.258 63.5547 394.73C64.4688 394.203 65.1309 393.518 65.541 392.674V388.771H62.9922C59.0078 388.771 57.0156 389.938 57.0156 392.27C57.0156 393.289 57.3555 394.086 58.0352 394.66C58.7148 395.234 59.5879 395.521 60.6543 395.521ZM76.9492 378.98L77.0371 381.09C78.4316 379.449 80.3125 378.629 82.6797 378.629C85.3398 378.629 87.1504 379.648 88.1113 381.688C88.7441 380.773 89.5645 380.035 90.5723 379.473C91.5918 378.91 92.793 378.629 94.1758 378.629C98.3477 378.629 100.469 380.838 100.539 385.256V398H97.2871V385.449C97.2871 384.09 96.9766 383.076 96.3555 382.408C95.7344 381.729 94.6914 381.389 93.2266 381.389C92.0195 381.389 91.0176 381.752 90.2207 382.479C89.4238 383.193 88.9609 384.16 88.832 385.379V398H85.5625V385.537C85.5625 382.771 84.209 381.389 81.502 381.389C79.3691 381.389 77.9102 382.297 77.125 384.113V398H73.873V378.98H76.9492Z" fill="black" fill-opacity="0.66"/>
<path d="M24.2324 498H20.9629V476.326L14.4062 478.734V475.781L23.7227 472.283H24.2324V498ZM44.4473 498H41.1777V476.326L34.6211 478.734V475.781L43.9375 472.283H44.4473V498ZM66.0508 498C65.8633 497.625 65.7109 496.957 65.5938 495.996C64.082 497.566 62.2773 498.352 60.1797 498.352C58.3047 498.352 56.7637 497.824 55.5566 496.77C54.3613 495.703 53.7637 494.355 53.7637 492.727C53.7637 490.746 54.5137 489.211 56.0137 488.121C57.5254 487.02 59.6465 486.469 62.377 486.469H65.541V484.975C65.541 483.838 65.2012 482.936 64.5215 482.268C63.8418 481.588 62.8398 481.248 61.5156 481.248C60.3555 481.248 59.3828 481.541 58.5977 482.127C57.8125 482.713 57.4199 483.422 57.4199 484.254H54.1504C54.1504 483.305 54.4844 482.391 55.1523 481.512C55.832 480.621 56.7461 479.918 57.8945 479.402C59.0547 478.887 60.3262 478.629 61.709 478.629C63.9004 478.629 65.6172 479.18 66.8594 480.281C68.1016 481.371 68.7461 482.877 68.793 484.799V493.553C68.793 495.299 69.0156 496.688 69.4609 497.719V498H66.0508ZM60.6543 495.521C61.6738 495.521 62.6406 495.258 63.5547 494.73C64.4688 494.203 65.1309 493.518 65.541 492.674V488.771H62.9922C59.0078 488.771 57.0156 489.938 57.0156 492.27C57.0156 493.289 57.3555 494.086 58.0352 494.66C58.7148 495.234 59.5879 495.521 60.6543 495.521ZM76.9492 478.98L77.0371 481.09C78.4316 479.449 80.3125 478.629 82.6797 478.629C85.3398 478.629 87.1504 479.648 88.1113 481.688C88.7441 480.773 89.5645 480.035 90.5723 479.473C91.5918 478.91 92.793 478.629 94.1758 478.629C98.3477 478.629 100.469 480.838 100.539 485.256V498H97.2871V485.449C97.2871 484.09 96.9766 483.076 96.3555 482.408C95.7344 481.729 94.6914 481.389 93.2266 481.389C92.0195 481.389 91.0176 481.752 90.2207 482.479C89.4238 483.193 88.9609 484.16 88.832 485.379V498H85.5625V485.537C85.5625 482.771 84.209 481.389 81.502 481.389C79.3691 481.389 77.9102 482.297 77.125 484.113V498H73.873V478.98H76.9492Z" fill="black" fill-opacity="0.66"/>
<path d="M23.5996 598H20.3301V576.326L13.7734 578.734V575.781L23.0898 572.283H23.5996V598ZM49.8965 598H33.127V595.662L41.9863 585.818C43.2988 584.33 44.2012 583.123 44.6934 582.197C45.1973 581.26 45.4492 580.293 45.4492 579.297C45.4492 577.961 45.0449 576.865 44.2363 576.01C43.4277 575.154 42.3496 574.727 41.002 574.727C39.3848 574.727 38.125 575.189 37.2227 576.115C36.332 577.029 35.8867 578.307 35.8867 579.947H32.6348C32.6348 577.592 33.3906 575.688 34.9023 574.234C36.4258 572.781 38.459 572.055 41.002 572.055C43.3809 572.055 45.2617 572.682 46.6445 573.936C48.0273 575.178 48.7188 576.836 48.7188 578.91C48.7188 581.43 47.1133 584.43 43.9023 587.91L37.0469 595.346H49.8965V598ZM69.7422 588.701C69.7422 591.596 69.0801 593.928 67.7559 595.697C66.4316 597.467 64.6387 598.352 62.377 598.352C60.0684 598.352 58.252 597.619 56.9277 596.154V605.312H53.6758V578.98H56.6465L56.8047 581.09C58.1289 579.449 59.9688 578.629 62.3242 578.629C64.6094 578.629 66.4141 579.49 67.7383 581.213C69.0742 582.936 69.7422 585.332 69.7422 588.402V588.701ZM66.4902 588.332C66.4902 586.188 66.0332 584.494 65.1191 583.252C64.2051 582.01 62.9512 581.389 61.3574 581.389C59.3887 581.389 57.9121 582.262 56.9277 584.008V593.096C57.9004 594.83 59.3887 595.697 61.3926 595.697C62.9512 595.697 64.1875 595.082 65.1016 593.852C66.0273 592.609 66.4902 590.77 66.4902 588.332ZM76.9492 578.98L77.0371 581.09C78.4316 579.449 80.3125 578.629 82.6797 578.629C85.3398 578.629 87.1504 579.648 88.1113 581.688C88.7441 580.773 89.5645 580.035 90.5723 579.473C91.5918 578.91 92.793 578.629 94.1758 578.629C98.3477 578.629 100.469 580.838 100.539 585.256V598H97.2871V585.449C97.2871 584.09 96.9766 583.076 96.3555 582.408C95.7344 581.729 94.6914 581.389 93.2266 581.389C92.0195 581.389 91.0176 581.752 90.2207 582.479C89.4238 583.193 88.9609 584.16 88.832 585.379V598H85.5625V585.537C85.5625 582.771 84.209 581.389 81.502 581.389C79.3691 581.389 77.9102 582.297 77.125 584.113V598H73.873V578.98H76.9492Z" fill="black" fill-opacity="0.66"/>
<path d="M43.8145 698H40.5449V676.326L33.9883 678.734V675.781L43.3047 672.283H43.8145V698ZM69.7422 688.701C69.7422 691.596 69.0801 693.928 67.7559 695.697C66.4316 697.467 64.6387 698.352 62.377 698.352C60.0684 698.352 58.252 697.619 56.9277 696.154V705.312H53.6758V678.98H56.6465L56.8047 681.09C58.1289 679.449 59.9688 678.629 62.3242 678.629C64.6094 678.629 66.4141 679.49 67.7383 681.213C69.0742 682.936 69.7422 685.332 69.7422 688.402V688.701ZM66.4902 688.332C66.4902 686.188 66.0332 684.494 65.1191 683.252C64.2051 682.01 62.9512 681.389 61.3574 681.389C59.3887 681.389 57.9121 682.262 56.9277 684.008V693.096C57.9004 694.83 59.3887 695.697 61.3926 695.697C62.9512 695.697 64.1875 695.082 65.1016 693.852C66.0273 692.609 66.4902 690.77 66.4902 688.332ZM76.9492 678.98L77.0371 681.09C78.4316 679.449 80.3125 678.629 82.6797 678.629C85.3398 678.629 87.1504 679.648 88.1113 681.688C88.7441 680.773 89.5645 680.035 90.5723 679.473C91.5918 678.91 92.793 678.629 94.1758 678.629C98.3477 678.629 100.469 680.838 100.539 685.256V698H97.2871V685.449C97.2871 684.09 96.9766 683.076 96.3555 682.408C95.7344 681.729 94.6914 681.389 93.2266 681.389C92.0195 681.389 91.0176 681.752 90.2207 682.479C89.4238 683.193 88.9609 684.16 88.832 685.379V698H85.5625V685.537C85.5625 682.771 84.209 681.389 81.502 681.389C79.3691 681.389 77.9102 682.297 77.125 684.113V698H73.873V678.98H76.9492Z" fill="black" fill-opacity="0.66"/>
<path d="M49.8965 798H33.127V795.662L41.9863 785.818C43.2988 784.33 44.2012 783.123 44.6934 782.197C45.1973 781.26 45.4492 780.293 45.4492 779.297C45.4492 777.961 45.0449 776.865 44.2363 776.01C43.4277 775.154 42.3496 774.727 41.002 774.727C39.3848 774.727 38.125 775.189 37.2227 776.115C36.332 777.029 35.8867 778.307 35.8867 779.947H32.6348C32.6348 777.592 33.3906 775.688 34.9023 774.234C36.4258 772.781 38.459 772.055 41.002 772.055C43.3809 772.055 45.2617 772.682 46.6445 773.936C48.0273 775.178 48.7188 776.836 48.7188 778.91C48.7188 781.43 47.1133 784.43 43.9023 787.91L37.0469 795.346H49.8965V798ZM69.7422 788.701C69.7422 791.596 69.0801 793.928 67.7559 795.697C66.4316 797.467 64.6387 798.352 62.377 798.352C60.0684 798.352 58.252 797.619 56.9277 796.154V805.312H53.6758V778.98H56.6465L56.8047 781.09C58.1289 779.449 59.9688 778.629 62.3242 778.629C64.6094 778.629 66.4141 779.49 67.7383 781.213C69.0742 782.936 69.7422 785.332 69.7422 788.402V788.701ZM66.4902 788.332C66.4902 786.188 66.0332 784.494 65.1191 783.252C64.2051 782.01 62.9512 781.389 61.3574 781.389C59.3887 781.389 57.9121 782.262 56.9277 784.008V793.096C57.9004 794.83 59.3887 795.697 61.3926 795.697C62.9512 795.697 64.1875 795.082 65.1016 793.852C66.0273 792.609 66.4902 790.77 66.4902 788.332ZM76.9492 778.98L77.0371 781.09C78.4316 779.449 80.3125 778.629 82.6797 778.629C85.3398 778.629 87.1504 779.648 88.1113 781.688C88.7441 780.773 89.5645 780.035 90.5723 779.473C91.5918 778.91 92.793 778.629 94.1758 778.629C98.3477 778.629 100.469 780.838 100.539 785.256V798H97.2871V785.449C97.2871 784.09 96.9766 783.076 96.3555 782.408C95.7344 781.729 94.6914 781.389 93.2266 781.389C92.0195 781.389 91.0176 781.752 90.2207 782.479C89.4238 783.193 88.9609 784.16 88.832 785.379V798H85.5625V785.537C85.5625 782.771 84.209 781.389 81.502 781.389C79.3691 781.389 77.9102 782.297 77.125 784.113V798H73.873V778.98H76.9492Z" fill="black" fill-opacity="0.66"/>
<path d="M37.8555 883.621H40.2988C41.834 883.598 43.041 883.193 43.9199 882.408C44.7988 881.623 45.2383 880.562 45.2383 879.227C45.2383 876.227 43.7441 874.727 40.7559 874.727C39.3496 874.727 38.2246 875.131 37.3809 875.939C36.5488 876.736 36.1328 877.797 36.1328 879.121H32.8809C32.8809 877.094 33.6191 875.412 35.0957 874.076C36.584 872.729 38.4707 872.055 40.7559 872.055C43.1699 872.055 45.0625 872.693 46.4336 873.971C47.8047 875.248 48.4902 877.023 48.4902 879.297C48.4902 880.41 48.127 881.488 47.4004 882.531C46.6855 883.574 45.707 884.354 44.4648 884.869C45.8711 885.314 46.9551 886.053 47.7168 887.084C48.4902 888.115 48.877 889.375 48.877 890.863C48.877 893.16 48.127 894.982 46.627 896.33C45.127 897.678 43.1758 898.352 40.7734 898.352C38.3711 898.352 36.4141 897.701 34.9023 896.4C33.4023 895.1 32.6523 893.383 32.6523 891.25H35.9219C35.9219 892.598 36.3613 893.676 37.2402 894.484C38.1191 895.293 39.2969 895.697 40.7734 895.697C42.3438 895.697 43.5449 895.287 44.377 894.467C45.209 893.646 45.625 892.469 45.625 890.934C45.625 889.445 45.168 888.303 44.2539 887.506C43.3398 886.709 42.0215 886.299 40.2988 886.275H37.8555V883.621ZM69.7422 888.701C69.7422 891.596 69.0801 893.928 67.7559 895.697C66.4316 897.467 64.6387 898.352 62.377 898.352C60.0684 898.352 58.252 897.619 56.9277 896.154V905.312H53.6758V878.98H56.6465L56.8047 881.09C58.1289 879.449 59.9688 878.629 62.3242 878.629C64.6094 878.629 66.4141 879.49 67.7383 881.213C69.0742 882.936 69.7422 885.332 69.7422 888.402V888.701ZM66.4902 888.332C66.4902 886.188 66.0332 884.494 65.1191 883.252C64.2051 882.01 62.9512 881.389 61.3574 881.389C59.3887 881.389 57.9121 882.262 56.9277 884.008V893.096C57.9004 894.83 59.3887 895.697 61.3926 895.697C62.9512 895.697 64.1875 895.082 65.1016 893.852C66.0273 892.609 66.4902 890.77 66.4902 888.332ZM76.9492 878.98L77.0371 881.09C78.4316 879.449 80.3125 878.629 82.6797 878.629C85.3398 878.629 87.1504 879.648 88.1113 881.688C88.7441 880.773 89.5645 880.035 90.5723 879.473C91.5918 878.91 92.793 878.629 94.1758 878.629C98.3477 878.629 100.469 880.838 100.539 885.256V898H97.2871V885.449C97.2871 884.09 96.9766 883.076 96.3555 882.408C95.7344 881.729 94.6914 881.389 93.2266 881.389C92.0195 881.389 91.0176 881.752 90.2207 882.479C89.4238 883.193 88.9609 884.16 88.832 885.379V898H85.5625V885.537C85.5625 882.771 84.209 881.389 81.502 881.389C79.3691 881.389 77.9102 882.297 77.125 884.113V898H73.873V878.98H76.9492Z" fill="black" fill-opacity="0.66"/>
<path d="M46.8555 989.404H50.4062V992.059H46.8555V998H43.5859V992.059H31.9316V990.143L43.3926 972.406H46.8555V989.404ZM35.623 989.404H43.5859V976.854L43.1992 977.557L35.623 989.404ZM69.7422 988.701C69.7422 991.596 69.0801 993.928 67.7559 995.697C66.4316 997.467 64.6387 998.352 62.377 998.352C60.0684 998.352 58.252 997.619 56.9277 996.154V1005.31H53.6758V978.98H56.6465L56.8047 981.09C58.1289 979.449 59.9688 978.629 62.3242 978.629C64.6094 978.629 66.4141 979.49 67.7383 981.213C69.0742 982.936 69.7422 985.332 69.7422 988.402V988.701ZM66.4902 988.332C66.4902 986.188 66.0332 984.494 65.1191 983.252C64.2051 982.01 62.9512 981.389 61.3574 981.389C59.3887 981.389 57.9121 982.262 56.9277 984.008V993.096C57.9004 994.83 59.3887 995.697 61.3926 995.697C62.9512 995.697 64.1875 995.082 65.1016 993.852C66.0273 992.609 66.4902 990.77 66.4902 988.332ZM76.9492 978.98L77.0371 981.09C78.4316 979.449 80.3125 978.629 82.6797 978.629C85.3398 978.629 87.1504 979.648 88.1113 981.688C88.7441 980.773 89.5645 980.035 90.5723 979.473C91.5918 978.91 92.793 978.629 94.1758 978.629C98.3477 978.629 100.469 980.838 100.539 985.256V998H97.2871V985.449C97.2871 984.09 96.9766 983.076 96.3555 982.408C95.7344 981.729 94.6914 981.389 93.2266 981.389C92.0195 981.389 91.0176 981.752 90.2207 982.479C89.4238 983.193 88.9609 984.16 88.832 985.379V998H85.5625V985.537C85.5625 982.771 84.209 981.389 81.502 981.389C79.3691 981.389 77.9102 982.297 77.125 984.113V998H73.873V978.98H76.9492Z" fill="black" fill-opacity="0.66"/>
<path d="M34.6211 1085.17L35.9219 1072.41H49.0352V1075.41H38.6816L37.9082 1082.39C39.1621 1081.65 40.5859 1081.28 42.1797 1081.28C44.5117 1081.28 46.3633 1082.06 47.7344 1083.6C49.1055 1085.14 49.791 1087.22 49.791 1089.84C49.791 1092.48 49.0762 1094.56 47.6465 1096.08C46.2285 1097.6 44.2422 1098.35 41.6875 1098.35C39.4258 1098.35 37.5801 1097.72 36.1504 1096.47C34.7207 1095.22 33.9062 1093.48 33.707 1091.27H36.7832C36.9824 1092.73 37.5039 1093.84 38.3477 1094.59C39.1914 1095.33 40.3047 1095.7 41.6875 1095.7C43.1992 1095.7 44.3828 1095.18 45.2383 1094.15C46.1055 1093.12 46.5391 1091.7 46.5391 1089.88C46.5391 1088.17 46.0703 1086.8 45.1328 1085.77C44.207 1084.72 42.9707 1084.2 41.4238 1084.2C40.0059 1084.2 38.8926 1084.51 38.084 1085.13L37.2227 1085.84L34.6211 1085.17ZM69.7422 1088.7C69.7422 1091.6 69.0801 1093.93 67.7559 1095.7C66.4316 1097.47 64.6387 1098.35 62.377 1098.35C60.0684 1098.35 58.252 1097.62 56.9277 1096.15V1105.31H53.6758V1078.98H56.6465L56.8047 1081.09C58.1289 1079.45 59.9688 1078.63 62.3242 1078.63C64.6094 1078.63 66.4141 1079.49 67.7383 1081.21C69.0742 1082.94 69.7422 1085.33 69.7422 1088.4V1088.7ZM66.4902 1088.33C66.4902 1086.19 66.0332 1084.49 65.1191 1083.25C64.2051 1082.01 62.9512 1081.39 61.3574 1081.39C59.3887 1081.39 57.9121 1082.26 56.9277 1084.01V1093.1C57.9004 1094.83 59.3887 1095.7 61.3926 1095.7C62.9512 1095.7 64.1875 1095.08 65.1016 1093.85C66.0273 1092.61 66.4902 1090.77 66.4902 1088.33ZM76.9492 1078.98L77.0371 1081.09C78.4316 1079.45 80.3125 1078.63 82.6797 1078.63C85.3398 1078.63 87.1504 1079.65 88.1113 1081.69C88.7441 1080.77 89.5645 1080.04 90.5723 1079.47C91.5918 1078.91 92.793 1078.63 94.1758 1078.63C98.3477 1078.63 100.469 1080.84 100.539 1085.26V1098H97.2871V1085.45C97.2871 1084.09 96.9766 1083.08 96.3555 1082.41C95.7344 1081.73 94.6914 1081.39 93.2266 1081.39C92.0195 1081.39 91.0176 1081.75 90.2207 1082.48C89.4238 1083.19 88.9609 1084.16 88.832 1085.38V1098H85.5625V1085.54C85.5625 1082.77 84.209 1081.39 81.502 1081.39C79.3691 1081.39 77.9102 1082.3 77.125 1084.11V1098H73.873V1078.98H76.9492Z" fill="black" fill-opacity="0.66"/>
<path d="M45.8887 1172.39V1175.15H45.291C42.7598 1175.2 40.7441 1175.95 39.2441 1177.4C37.7441 1178.85 36.877 1180.9 36.6426 1183.53C37.9902 1181.99 39.8301 1181.21 42.1621 1181.21C44.3887 1181.21 46.1641 1182 47.4883 1183.57C48.8242 1185.14 49.4922 1187.17 49.4922 1189.65C49.4922 1192.29 48.7715 1194.4 47.3301 1195.98C45.9004 1197.56 43.9785 1198.35 41.5645 1198.35C39.1152 1198.35 37.1289 1197.41 35.6055 1195.54C34.082 1193.65 33.3203 1191.23 33.3203 1188.26V1187.01C33.3203 1182.3 34.3223 1178.71 36.3262 1176.22C38.3418 1173.72 41.3359 1172.45 45.3086 1172.39H45.8887ZM41.6172 1183.92C40.5039 1183.92 39.4785 1184.25 38.541 1184.92C37.6035 1185.59 36.9531 1186.43 36.5898 1187.44V1188.63C36.5898 1190.74 37.0645 1192.44 38.0137 1193.73C38.9629 1195.02 40.1465 1195.66 41.5645 1195.66C43.0293 1195.66 44.1777 1195.12 45.0098 1194.04C45.8535 1192.97 46.2754 1191.55 46.2754 1189.81C46.2754 1188.05 45.8477 1186.63 44.9922 1185.55C44.1484 1184.46 43.0234 1183.92 41.6172 1183.92ZM69.7422 1188.7C69.7422 1191.6 69.0801 1193.93 67.7559 1195.7C66.4316 1197.47 64.6387 1198.35 62.377 1198.35C60.0684 1198.35 58.252 1197.62 56.9277 1196.15V1205.31H53.6758V1178.98H56.6465L56.8047 1181.09C58.1289 1179.45 59.9688 1178.63 62.3242 1178.63C64.6094 1178.63 66.4141 1179.49 67.7383 1181.21C69.0742 1182.94 69.7422 1185.33 69.7422 1188.4V1188.7ZM66.4902 1188.33C66.4902 1186.19 66.0332 1184.49 65.1191 1183.25C64.2051 1182.01 62.9512 1181.39 61.3574 1181.39C59.3887 1181.39 57.9121 1182.26 56.9277 1184.01V1193.1C57.9004 1194.83 59.3887 1195.7 61.3926 1195.7C62.9512 1195.7 64.1875 1195.08 65.1016 1193.85C66.0273 1192.61 66.4902 1190.77 66.4902 1188.33ZM76.9492 1178.98L77.0371 1181.09C78.4316 1179.45 80.3125 1178.63 82.6797 1178.63C85.3398 1178.63 87.1504 1179.65 88.1113 1181.69C88.7441 1180.77 89.5645 1180.04 90.5723 1179.47C91.5918 1178.91 92.793 1178.63 94.1758 1178.63C98.3477 1178.63 100.469 1180.84 100.539 1185.26V1198H97.2871V1185.45C97.2871 1184.09 96.9766 1183.08 96.3555 1182.41C95.7344 1181.73 94.6914 1181.39 93.2266 1181.39C92.0195 1181.39 91.0176 1181.75 90.2207 1182.48C89.4238 1183.19 88.9609 1184.16 88.832 1185.38V1198H85.5625V1185.54C85.5625 1182.77 84.209 1181.39 81.502 1181.39C79.3691 1181.39 77.9102 1182.3 77.125 1184.11V1198H73.873V1178.98H76.9492Z" fill="black" fill-opacity="0.66"/>
<path d="M49.6504 1274.23L39.0508 1298H35.6406L46.2051 1275.08H32.3535V1272.41H49.6504V1274.23ZM69.7422 1288.7C69.7422 1291.6 69.0801 1293.93 67.7559 1295.7C66.4316 1297.47 64.6387 1298.35 62.377 1298.35C60.0684 1298.35 58.252 1297.62 56.9277 1296.15V1305.31H53.6758V1278.98H56.6465L56.8047 1281.09C58.1289 1279.45 59.9688 1278.63 62.3242 1278.63C64.6094 1278.63 66.4141 1279.49 67.7383 1281.21C69.0742 1282.94 69.7422 1285.33 69.7422 1288.4V1288.7ZM66.4902 1288.33C66.4902 1286.19 66.0332 1284.49 65.1191 1283.25C64.2051 1282.01 62.9512 1281.39 61.3574 1281.39C59.3887 1281.39 57.9121 1282.26 56.9277 1284.01V1293.1C57.9004 1294.83 59.3887 1295.7 61.3926 1295.7C62.9512 1295.7 64.1875 1295.08 65.1016 1293.85C66.0273 1292.61 66.4902 1290.77 66.4902 1288.33ZM76.9492 1278.98L77.0371 1281.09C78.4316 1279.45 80.3125 1278.63 82.6797 1278.63C85.3398 1278.63 87.1504 1279.65 88.1113 1281.69C88.7441 1280.77 89.5645 1280.04 90.5723 1279.47C91.5918 1278.91 92.793 1278.63 94.1758 1278.63C98.3477 1278.63 100.469 1280.84 100.539 1285.26V1298H97.2871V1285.45C97.2871 1284.09 96.9766 1283.08 96.3555 1282.41C95.7344 1281.73 94.6914 1281.39 93.2266 1281.39C92.0195 1281.39 91.0176 1281.75 90.2207 1282.48C89.4238 1283.19 88.9609 1284.16 88.832 1285.38V1298H85.5625V1285.54C85.5625 1282.77 84.209 1281.39 81.502 1281.39C79.3691 1281.39 77.9102 1282.3 77.125 1284.11V1298H73.873V1278.98H76.9492Z" fill="black" fill-opacity="0.66"/>
<path d="M48.6484 1379.09C48.6484 1380.36 48.3086 1381.5 47.6289 1382.5C46.9609 1383.49 46.0527 1384.27 44.9043 1384.83C46.2402 1385.41 47.2949 1386.25 48.0684 1387.35C48.8535 1388.45 49.2461 1389.7 49.2461 1391.09C49.2461 1393.31 48.4961 1395.07 46.9961 1396.38C45.5078 1397.7 43.5449 1398.35 41.1074 1398.35C38.6465 1398.35 36.6719 1397.7 35.1836 1396.38C33.707 1395.06 32.9688 1393.29 32.9688 1391.09C32.9688 1389.71 33.3438 1388.46 34.0938 1387.35C34.8555 1386.23 35.9043 1385.39 37.2402 1384.82C36.1035 1384.25 35.207 1383.47 34.5508 1382.48C33.8945 1381.48 33.5664 1380.35 33.5664 1379.09C33.5664 1376.93 34.2578 1375.22 35.6406 1373.95C37.0234 1372.69 38.8457 1372.05 41.1074 1372.05C43.3574 1372.05 45.1738 1372.69 46.5566 1373.95C47.9512 1375.22 48.6484 1376.93 48.6484 1379.09ZM45.9941 1391.02C45.9941 1389.59 45.5371 1388.43 44.623 1387.52C43.7207 1386.62 42.5371 1386.17 41.0723 1386.17C39.6074 1386.17 38.4297 1386.62 37.5391 1387.51C36.6602 1388.4 36.2207 1389.57 36.2207 1391.02C36.2207 1392.47 36.6484 1393.62 37.5039 1394.45C38.3711 1395.28 39.5723 1395.7 41.1074 1395.7C42.6309 1395.7 43.8262 1395.28 44.6934 1394.45C45.5605 1393.61 45.9941 1392.46 45.9941 1391.02ZM41.1074 1374.73C39.8301 1374.73 38.793 1375.12 37.9961 1375.92C37.2109 1376.71 36.8184 1377.78 36.8184 1379.14C36.8184 1380.44 37.2051 1381.49 37.9785 1382.3C38.7637 1383.1 39.8066 1383.5 41.1074 1383.5C42.4082 1383.5 43.4453 1383.1 44.2188 1382.3C45.0039 1381.49 45.3965 1380.44 45.3965 1379.14C45.3965 1377.84 44.9922 1376.78 44.1836 1375.96C43.375 1375.14 42.3496 1374.73 41.1074 1374.73ZM69.7422 1388.7C69.7422 1391.6 69.0801 1393.93 67.7559 1395.7C66.4316 1397.47 64.6387 1398.35 62.377 1398.35C60.0684 1398.35 58.252 1397.62 56.9277 1396.15V1405.31H53.6758V1378.98H56.6465L56.8047 1381.09C58.1289 1379.45 59.9688 1378.63 62.3242 1378.63C64.6094 1378.63 66.4141 1379.49 67.7383 1381.21C69.0742 1382.94 69.7422 1385.33 69.7422 1388.4V1388.7ZM66.4902 1388.33C66.4902 1386.19 66.0332 1384.49 65.1191 1383.25C64.2051 1382.01 62.9512 1381.39 61.3574 1381.39C59.3887 1381.39 57.9121 1382.26 56.9277 1384.01V1393.1C57.9004 1394.83 59.3887 1395.7 61.3926 1395.7C62.9512 1395.7 64.1875 1395.08 65.1016 1393.85C66.0273 1392.61 66.4902 1390.77 66.4902 1388.33ZM76.9492 1378.98L77.0371 1381.09C78.4316 1379.45 80.3125 1378.63 82.6797 1378.63C85.3398 1378.63 87.1504 1379.65 88.1113 1381.69C88.7441 1380.77 89.5645 1380.04 90.5723 1379.47C91.5918 1378.91 92.793 1378.63 94.1758 1378.63C98.3477 1378.63 100.469 1380.84 100.539 1385.26V1398H97.2871V1385.45C97.2871 1384.09 96.9766 1383.08 96.3555 1382.41C95.7344 1381.73 94.6914 1381.39 93.2266 1381.39C92.0195 1381.39 91.0176 1381.75 90.2207 1382.48C89.4238 1383.19 88.9609 1384.16 88.832 1385.38V1398H85.5625V1385.54C85.5625 1382.77 84.209 1381.39 81.502 1381.39C79.3691 1381.39 77.9102 1382.3 77.125 1384.11V1398H73.873V1378.98H76.9492Z" fill="black" fill-opacity="0.66"/>
<path d="M45.5898 1486.75C44.9102 1487.56 44.0957 1488.21 43.1465 1488.7C42.209 1489.19 41.1777 1489.44 40.0527 1489.44C38.5762 1489.44 37.2871 1489.08 36.1855 1488.35C35.0957 1487.62 34.252 1486.6 33.6543 1485.29C33.0566 1483.97 32.7578 1482.51 32.7578 1480.91C32.7578 1479.2 33.0801 1477.66 33.7246 1476.29C34.3809 1474.92 35.3066 1473.87 36.502 1473.14C37.6973 1472.42 39.0918 1472.05 40.6855 1472.05C43.2168 1472.05 45.209 1473 46.6621 1474.9C48.127 1476.79 48.8594 1479.37 48.8594 1482.64V1483.59C48.8594 1488.57 47.875 1492.21 45.9062 1494.5C43.9375 1496.79 40.9668 1497.96 36.9941 1498.02H36.3613V1495.28H37.0469C39.7305 1495.23 41.793 1494.53 43.2344 1493.18C44.6758 1491.82 45.4609 1489.68 45.5898 1486.75ZM40.5801 1486.75C41.6699 1486.75 42.6719 1486.42 43.5859 1485.75C44.5117 1485.08 45.1855 1484.25 45.6074 1483.27V1481.97C45.6074 1479.84 45.1445 1478.1 44.2188 1476.77C43.293 1475.43 42.1211 1474.76 40.7031 1474.76C39.2734 1474.76 38.125 1475.31 37.2578 1476.41C36.3906 1477.5 35.957 1478.95 35.957 1480.74C35.957 1482.48 36.373 1483.93 37.2051 1485.06C38.0488 1486.19 39.1738 1486.75 40.5801 1486.75ZM69.7422 1488.7C69.7422 1491.6 69.0801 1493.93 67.7559 1495.7C66.4316 1497.47 64.6387 1498.35 62.377 1498.35C60.0684 1498.35 58.252 1497.62 56.9277 1496.15V1505.31H53.6758V1478.98H56.6465L56.8047 1481.09C58.1289 1479.45 59.9688 1478.63 62.3242 1478.63C64.6094 1478.63 66.4141 1479.49 67.7383 1481.21C69.0742 1482.94 69.7422 1485.33 69.7422 1488.4V1488.7ZM66.4902 1488.33C66.4902 1486.19 66.0332 1484.49 65.1191 1483.25C64.2051 1482.01 62.9512 1481.39 61.3574 1481.39C59.3887 1481.39 57.9121 1482.26 56.9277 1484.01V1493.1C57.9004 1494.83 59.3887 1495.7 61.3926 1495.7C62.9512 1495.7 64.1875 1495.08 65.1016 1493.85C66.0273 1492.61 66.4902 1490.77 66.4902 1488.33ZM76.9492 1478.98L77.0371 1481.09C78.4316 1479.45 80.3125 1478.63 82.6797 1478.63C85.3398 1478.63 87.1504 1479.65 88.1113 1481.69C88.7441 1480.77 89.5645 1480.04 90.5723 1479.47C91.5918 1478.91 92.793 1478.63 94.1758 1478.63C98.3477 1478.63 100.469 1480.84 100.539 1485.26V1498H97.2871V1485.45C97.2871 1484.09 96.9766 1483.08 96.3555 1482.41C95.7344 1481.73 94.6914 1481.39 93.2266 1481.39C92.0195 1481.39 91.0176 1481.75 90.2207 1482.48C89.4238 1483.19 88.9609 1484.16 88.832 1485.38V1498H85.5625V1485.54C85.5625 1482.77 84.209 1481.39 81.502 1481.39C79.3691 1481.39 77.9102 1482.3 77.125 1484.11V1498H73.873V1478.98H76.9492Z" fill="black" fill-opacity="0.66"/>
<path d="M23.5996 1598H20.3301V1576.33L13.7734 1578.73V1575.78L23.0898 1572.28H23.5996V1598ZM49.1758 1587.08C49.1758 1590.89 48.5254 1593.72 47.2246 1595.57C45.9238 1597.43 43.8906 1598.35 41.125 1598.35C38.3945 1598.35 36.373 1597.45 35.0605 1595.64C33.748 1593.83 33.0684 1591.12 33.0215 1587.52V1583.18C33.0215 1579.42 33.6719 1576.62 34.9727 1574.8C36.2734 1572.97 38.3125 1572.05 41.0898 1572.05C43.8438 1572.05 45.8711 1572.94 47.1719 1574.71C48.4727 1576.47 49.1406 1579.19 49.1758 1582.87V1587.08ZM45.9238 1582.64C45.9238 1579.88 45.5371 1577.88 44.7637 1576.62C43.9902 1575.36 42.7656 1574.73 41.0898 1574.73C39.4258 1574.73 38.2129 1575.35 37.4512 1576.61C36.6895 1577.86 36.2969 1579.79 36.2734 1582.39V1587.59C36.2734 1590.36 36.6719 1592.4 37.4688 1593.73C38.2773 1595.04 39.4961 1595.7 41.125 1595.7C42.7305 1595.7 43.9199 1595.08 44.6934 1593.83C45.4785 1592.59 45.8887 1590.63 45.9238 1587.96V1582.64ZM69.7422 1588.7C69.7422 1591.6 69.0801 1593.93 67.7559 1595.7C66.4316 1597.47 64.6387 1598.35 62.377 1598.35C60.0684 1598.35 58.252 1597.62 56.9277 1596.15V1605.31H53.6758V1578.98H56.6465L56.8047 1581.09C58.1289 1579.45 59.9688 1578.63 62.3242 1578.63C64.6094 1578.63 66.4141 1579.49 67.7383 1581.21C69.0742 1582.94 69.7422 1585.33 69.7422 1588.4V1588.7ZM66.4902 1588.33C66.4902 1586.19 66.0332 1584.49 65.1191 1583.25C64.2051 1582.01 62.9512 1581.39 61.3574 1581.39C59.3887 1581.39 57.9121 1582.26 56.9277 1584.01V1593.1C57.9004 1594.83 59.3887 1595.7 61.3926 1595.7C62.9512 1595.7 64.1875 1595.08 65.1016 1593.85C66.0273 1592.61 66.4902 1590.77 66.4902 1588.33ZM76.9492 1578.98L77.0371 1581.09C78.4316 1579.45 80.3125 1578.63 82.6797 1578.63C85.3398 1578.63 87.1504 1579.65 88.1113 1581.69C88.7441 1580.77 89.5645 1580.04 90.5723 1579.47C91.5918 1578.91 92.793 1578.63 94.1758 1578.63C98.3477 1578.63 100.469 1580.84 100.539 1585.26V1598H97.2871V1585.45C97.2871 1584.09 96.9766 1583.08 96.3555 1582.41C95.7344 1581.73 94.6914 1581.39 93.2266 1581.39C92.0195 1581.39 91.0176 1581.75 90.2207 1582.48C89.4238 1583.19 88.9609 1584.16 88.832 1585.38V1598H85.5625V1585.54C85.5625 1582.77 84.209 1581.39 81.502 1581.39C79.3691 1581.39 77.9102 1582.3 77.125 1584.11V1598H73.873V1578.98H76.9492Z" fill="black" fill-opacity="0.66"/>
<path d="M23.5996 1698H20.3301V1676.33L13.7734 1678.73V1675.78L23.0898 1672.28H23.5996V1698ZM43.8145 1698H40.5449V1676.33L33.9883 1678.73V1675.78L43.3047 1672.28H43.8145V1698ZM69.7422 1688.7C69.7422 1691.6 69.0801 1693.93 67.7559 1695.7C66.4316 1697.47 64.6387 1698.35 62.377 1698.35C60.0684 1698.35 58.252 1697.62 56.9277 1696.15V1705.31H53.6758V1678.98H56.6465L56.8047 1681.09C58.1289 1679.45 59.9688 1678.63 62.3242 1678.63C64.6094 1678.63 66.4141 1679.49 67.7383 1681.21C69.0742 1682.94 69.7422 1685.33 69.7422 1688.4V1688.7ZM66.4902 1688.33C66.4902 1686.19 66.0332 1684.49 65.1191 1683.25C64.2051 1682.01 62.9512 1681.39 61.3574 1681.39C59.3887 1681.39 57.9121 1682.26 56.9277 1684.01V1693.1C57.9004 1694.83 59.3887 1695.7 61.3926 1695.7C62.9512 1695.7 64.1875 1695.08 65.1016 1693.85C66.0273 1692.61 66.4902 1690.77 66.4902 1688.33ZM76.9492 1678.98L77.0371 1681.09C78.4316 1679.45 80.3125 1678.63 82.6797 1678.63C85.3398 1678.63 87.1504 1679.65 88.1113 1681.69C88.7441 1680.77 89.5645 1680.04 90.5723 1679.47C91.5918 1678.91 92.793 1678.63 94.1758 1678.63C98.3477 1678.63 100.469 1680.84 100.539 1685.26V1698H97.2871V1685.45C97.2871 1684.09 96.9766 1683.08 96.3555 1682.41C95.7344 1681.73 94.6914 1681.39 93.2266 1681.39C92.0195 1681.39 91.0176 1681.75 90.2207 1682.48C89.4238 1683.19 88.9609 1684.16 88.832 1685.38V1698H85.5625V1685.54C85.5625 1682.77 84.209 1681.39 81.502 1681.39C79.3691 1681.39 77.9102 1682.3 77.125 1684.11V1698H73.873V1678.98H76.9492Z" fill="black" fill-opacity="0.66"/>
<path d="M24.2324 1798H20.9629V1776.33L14.4062 1778.73V1775.78L23.7227 1772.28H24.2324V1798ZM50.5293 1798H33.7598V1795.66L42.6191 1785.82C43.9316 1784.33 44.834 1783.12 45.3262 1782.2C45.8301 1781.26 46.082 1780.29 46.082 1779.3C46.082 1777.96 45.6777 1776.87 44.8691 1776.01C44.0605 1775.15 42.9824 1774.73 41.6348 1774.73C40.0176 1774.73 38.7578 1775.19 37.8555 1776.12C36.9648 1777.03 36.5195 1778.31 36.5195 1779.95H33.2676C33.2676 1777.59 34.0234 1775.69 35.5352 1774.23C37.0586 1772.78 39.0918 1772.05 41.6348 1772.05C44.0137 1772.05 45.8945 1772.68 47.2773 1773.94C48.6602 1775.18 49.3516 1776.84 49.3516 1778.91C49.3516 1781.43 47.7461 1784.43 44.5352 1787.91L37.6797 1795.35H50.5293V1798ZM66.0508 1798C65.8633 1797.62 65.7109 1796.96 65.5938 1796C64.082 1797.57 62.2773 1798.35 60.1797 1798.35C58.3047 1798.35 56.7637 1797.82 55.5566 1796.77C54.3613 1795.7 53.7637 1794.36 53.7637 1792.73C53.7637 1790.75 54.5137 1789.21 56.0137 1788.12C57.5254 1787.02 59.6465 1786.47 62.377 1786.47H65.541V1784.97C65.541 1783.84 65.2012 1782.94 64.5215 1782.27C63.8418 1781.59 62.8398 1781.25 61.5156 1781.25C60.3555 1781.25 59.3828 1781.54 58.5977 1782.13C57.8125 1782.71 57.4199 1783.42 57.4199 1784.25H54.1504C54.1504 1783.3 54.4844 1782.39 55.1523 1781.51C55.832 1780.62 56.7461 1779.92 57.8945 1779.4C59.0547 1778.89 60.3262 1778.63 61.709 1778.63C63.9004 1778.63 65.6172 1779.18 66.8594 1780.28C68.1016 1781.37 68.7461 1782.88 68.793 1784.8V1793.55C68.793 1795.3 69.0156 1796.69 69.4609 1797.72V1798H66.0508ZM60.6543 1795.52C61.6738 1795.52 62.6406 1795.26 63.5547 1794.73C64.4688 1794.2 65.1309 1793.52 65.541 1792.67V1788.77H62.9922C59.0078 1788.77 57.0156 1789.94 57.0156 1792.27C57.0156 1793.29 57.3555 1794.09 58.0352 1794.66C58.7148 1795.23 59.5879 1795.52 60.6543 1795.52ZM76.9492 1778.98L77.0371 1781.09C78.4316 1779.45 80.3125 1778.63 82.6797 1778.63C85.3398 1778.63 87.1504 1779.65 88.1113 1781.69C88.7441 1780.77 89.5645 1780.04 90.5723 1779.47C91.5918 1778.91 92.793 1778.63 94.1758 1778.63C98.3477 1778.63 100.469 1780.84 100.539 1785.26V1798H97.2871V1785.45C97.2871 1784.09 96.9766 1783.08 96.3555 1782.41C95.7344 1781.73 94.6914 1781.39 93.2266 1781.39C92.0195 1781.39 91.0176 1781.75 90.2207 1782.48C89.4238 1783.19 88.9609 1784.16 88.832 1785.38V1798H85.5625V1785.54C85.5625 1782.77 84.209 1781.39 81.502 1781.39C79.3691 1781.39 77.9102 1782.3 77.125 1784.11V1798H73.873V1778.98H76.9492Z" fill="black" fill-opacity="0.66"/>
<line x1="876.5" y1="-2.18557e-08" x2="876.5" y2="1872" stroke="black" stroke-opacity="0.75"/>
<line x1="498.5" y1="-2.18557e-08" x2="498.5" y2="1872" stroke="black" stroke-opacity="0.75"/>
<path d="M150.346 34.9805V45H146.971V19.4062H156.41C159.211 19.4062 161.402 20.1211 162.984 21.5508C164.578 22.9805 165.375 24.873 165.375 27.2285C165.375 29.7129 164.596 31.6289 163.037 32.9766C161.49 34.3125 159.27 34.9805 156.375 34.9805H150.346ZM150.346 32.2207H156.41C158.215 32.2207 159.598 31.7988 160.559 30.9551C161.52 30.0996 162 28.8691 162 27.2637C162 25.7402 161.52 24.5215 160.559 23.6074C159.598 22.6934 158.279 22.2188 156.604 22.1836H150.346V32.2207ZM172.705 45H169.453V18H172.705V45ZM189.668 45C189.48 44.625 189.328 43.957 189.211 42.9961C187.699 44.5664 185.895 45.3516 183.797 45.3516C181.922 45.3516 180.381 44.8242 179.174 43.7695C177.979 42.7031 177.381 41.3555 177.381 39.7266C177.381 37.7461 178.131 36.2109 179.631 35.1211C181.143 34.0195 183.264 33.4688 185.994 33.4688H189.158V31.9746C189.158 30.8379 188.818 29.9355 188.139 29.2676C187.459 28.5879 186.457 28.248 185.133 28.248C183.973 28.248 183 28.541 182.215 29.127C181.43 29.7129 181.037 30.4219 181.037 31.2539H177.768C177.768 30.3047 178.102 29.3906 178.77 28.5117C179.449 27.6211 180.363 26.918 181.512 26.4023C182.672 25.8867 183.943 25.6289 185.326 25.6289C187.518 25.6289 189.234 26.1797 190.477 27.2812C191.719 28.3711 192.363 29.877 192.41 31.7988V40.5527C192.41 42.2988 192.633 43.6875 193.078 44.7188V45H189.668ZM184.271 42.5215C185.291 42.5215 186.258 42.2578 187.172 41.7305C188.086 41.2031 188.748 40.5176 189.158 39.6738V35.7715H186.609C182.625 35.7715 180.633 36.9375 180.633 39.2695C180.633 40.2891 180.973 41.0859 181.652 41.6602C182.332 42.2344 183.205 42.5215 184.271 42.5215ZM200.584 25.9805L200.689 28.3711C202.143 26.543 204.041 25.6289 206.385 25.6289C210.404 25.6289 212.432 27.8965 212.467 32.4316V45H209.215V32.4141C209.203 31.043 208.887 30.0293 208.266 29.373C207.656 28.7168 206.701 28.3887 205.4 28.3887C204.346 28.3887 203.42 28.6699 202.623 29.2324C201.826 29.7949 201.205 30.5332 200.76 31.4473V45H197.508V25.9805H200.584ZM220.447 25.9805L220.553 28.3711C222.006 26.543 223.904 25.6289 226.248 25.6289C230.268 25.6289 232.295 27.8965 232.33 32.4316V45H229.078V32.4141C229.066 31.043 228.75 30.0293 228.129 29.373C227.52 28.7168 226.564 28.3887 225.264 28.3887C224.209 28.3887 223.283 28.6699 222.486 29.2324C221.689 29.7949 221.068 30.5332 220.623 31.4473V45H217.371V25.9805H220.447ZM245.127 45.3516C242.549 45.3516 240.451 44.5078 238.834 42.8203C237.217 41.1211 236.408 38.8535 236.408 36.0176V35.4199C236.408 33.5332 236.766 31.8516 237.48 30.375C238.207 28.8867 239.215 27.7266 240.504 26.8945C241.805 26.0508 243.211 25.6289 244.723 25.6289C247.195 25.6289 249.117 26.4434 250.488 28.0723C251.859 29.7012 252.545 32.0332 252.545 35.0684V36.4219H239.66C239.707 38.2969 240.252 39.8145 241.295 40.9746C242.35 42.123 243.686 42.6973 245.303 42.6973C246.451 42.6973 247.424 42.4629 248.221 41.9941C249.018 41.5254 249.715 40.9043 250.312 40.1309L252.299 41.6777C250.705 44.127 248.314 45.3516 245.127 45.3516ZM244.723 28.3008C243.41 28.3008 242.309 28.7812 241.418 29.7422C240.527 30.6914 239.977 32.0273 239.766 33.75H249.293V33.5039C249.199 31.8516 248.754 30.5742 247.957 29.6719C247.16 28.7578 246.082 28.3008 244.723 28.3008ZM255.533 35.332C255.533 32.4141 256.225 30.0703 257.607 28.3008C258.99 26.5195 260.801 25.6289 263.039 25.6289C265.266 25.6289 267.029 26.3906 268.33 27.9141V18H271.582V45H268.594L268.436 42.9609C267.135 44.5547 265.324 45.3516 263.004 45.3516C260.801 45.3516 259.002 44.4492 257.607 42.6445C256.225 40.8398 255.533 38.4844 255.533 35.5781V35.332ZM258.785 35.7012C258.785 37.8574 259.23 39.5449 260.121 40.7637C261.012 41.9824 262.242 42.5918 263.812 42.5918C265.875 42.5918 267.381 41.666 268.33 39.8145V31.0781C267.357 29.2852 265.863 28.3887 263.848 28.3887C262.254 28.3887 261.012 29.0039 260.121 30.2344C259.23 31.4648 258.785 33.2871 258.785 35.7012Z" fill="black"/>
<path d="M539.104 38.3203H528.381L525.973 45H522.492L532.266 19.4062H535.219L545.01 45H541.547L539.104 38.3203ZM529.4 35.543H538.102L533.742 23.5723L529.4 35.543ZM555.574 42.6973C556.734 42.6973 557.748 42.3457 558.615 41.6426C559.482 40.9395 559.963 40.0605 560.057 39.0059H563.133C563.074 40.0957 562.699 41.1328 562.008 42.1172C561.316 43.1016 560.391 43.8867 559.23 44.4727C558.082 45.0586 556.863 45.3516 555.574 45.3516C552.984 45.3516 550.922 44.4902 549.387 42.7676C547.863 41.0332 547.102 38.666 547.102 35.666V35.1211C547.102 33.2695 547.441 31.623 548.121 30.1816C548.801 28.7402 549.773 27.6211 551.039 26.8242C552.316 26.0273 553.822 25.6289 555.557 25.6289C557.689 25.6289 559.459 26.2676 560.865 27.5449C562.283 28.8223 563.039 30.4805 563.133 32.5195H560.057C559.963 31.2891 559.494 30.2812 558.65 29.4961C557.818 28.6992 556.787 28.3008 555.557 28.3008C553.904 28.3008 552.621 28.8984 551.707 30.0938C550.805 31.2773 550.354 32.9941 550.354 35.2441V35.8594C550.354 38.0508 550.805 39.7383 551.707 40.9219C552.609 42.1055 553.898 42.6973 555.574 42.6973ZM571.201 21.375V25.9805H574.752V28.4941H571.201V40.2891C571.201 41.0508 571.359 41.625 571.676 42.0117C571.992 42.3867 572.531 42.5742 573.293 42.5742C573.668 42.5742 574.184 42.5039 574.84 42.3633V45C573.984 45.2344 573.152 45.3516 572.344 45.3516C570.891 45.3516 569.795 44.9121 569.057 44.0332C568.318 43.1543 567.949 41.9062 567.949 40.2891V28.4941H564.486V25.9805H567.949V21.375H571.201ZM590.309 43.1191C589.043 44.6074 587.186 45.3516 584.736 45.3516C582.709 45.3516 581.162 44.7656 580.096 43.5938C579.041 42.4102 578.508 40.6641 578.496 38.3555V25.9805H581.748V38.2676C581.748 41.1504 582.92 42.5918 585.264 42.5918C587.748 42.5918 589.4 41.666 590.221 39.8145V25.9805H593.473V45H590.379L590.309 43.1191ZM610.172 45C609.984 44.625 609.832 43.957 609.715 42.9961C608.203 44.5664 606.398 45.3516 604.301 45.3516C602.426 45.3516 600.885 44.8242 599.678 43.7695C598.482 42.7031 597.885 41.3555 597.885 39.7266C597.885 37.7461 598.635 36.2109 600.135 35.1211C601.646 34.0195 603.768 33.4688 606.498 33.4688H609.662V31.9746C609.662 30.8379 609.322 29.9355 608.643 29.2676C607.963 28.5879 606.961 28.248 605.637 28.248C604.477 28.248 603.504 28.541 602.719 29.127C601.934 29.7129 601.541 30.4219 601.541 31.2539H598.271C598.271 30.3047 598.605 29.3906 599.273 28.5117C599.953 27.6211 600.867 26.918 602.016 26.4023C603.176 25.8867 604.447 25.6289 605.83 25.6289C608.021 25.6289 609.738 26.1797 610.98 27.2812C612.223 28.3711 612.867 29.877 612.914 31.7988V40.5527C612.914 42.2988 613.137 43.6875 613.582 44.7188V45H610.172ZM604.775 42.5215C605.795 42.5215 606.762 42.2578 607.676 41.7305C608.59 41.2031 609.252 40.5176 609.662 39.6738V35.7715H607.113C603.129 35.7715 601.137 36.9375 601.137 39.2695C601.137 40.2891 601.477 41.0859 602.156 41.6602C602.836 42.2344 603.709 42.5215 604.775 42.5215ZM621.545 45H618.293V18H621.545V45Z" fill="black"/>
<path d="M922.641 45H919.248V33.1699H906.346V45H902.971V19.4062H906.346V30.4102H919.248V19.4062H922.641V45ZM931.658 45H928.406V25.9805H931.658V45ZM928.143 20.9355C928.143 20.4082 928.301 19.9629 928.617 19.5996C928.945 19.2363 929.426 19.0547 930.059 19.0547C930.691 19.0547 931.172 19.2363 931.5 19.5996C931.828 19.9629 931.992 20.4082 931.992 20.9355C931.992 21.4629 931.828 21.9023 931.5 22.2539C931.172 22.6055 930.691 22.7812 930.059 22.7812C929.426 22.7812 928.945 22.6055 928.617 22.2539C928.301 21.9023 928.143 21.4629 928.143 20.9355ZM941.291 21.375V25.9805H944.842V28.4941H941.291V40.2891C941.291 41.0508 941.449 41.625 941.766 42.0117C942.082 42.3867 942.621 42.5742 943.383 42.5742C943.758 42.5742 944.273 42.5039 944.93 42.3633V45C944.074 45.2344 943.242 45.3516 942.434 45.3516C940.98 45.3516 939.885 44.9121 939.146 44.0332C938.408 43.1543 938.039 41.9062 938.039 40.2891V28.4941H934.576V25.9805H938.039V21.375H941.291ZM952.189 45H948.938V18H952.189V45ZM960.943 45H957.691V25.9805H960.943V45ZM957.428 20.9355C957.428 20.4082 957.586 19.9629 957.902 19.5996C958.23 19.2363 958.711 19.0547 959.344 19.0547C959.977 19.0547 960.457 19.2363 960.785 19.5996C961.113 19.9629 961.277 20.4082 961.277 20.9355C961.277 21.4629 961.113 21.9023 960.785 22.2539C960.457 22.6055 959.977 22.7812 959.344 22.7812C958.711 22.7812 958.23 22.6055 957.902 22.2539C957.586 21.9023 957.428 21.4629 957.428 20.9355ZM977.238 39.9551C977.238 39.0762 976.904 38.3965 976.236 37.916C975.58 37.4238 974.426 37.002 972.773 36.6504C971.133 36.2988 969.826 35.877 968.854 35.3848C967.893 34.8926 967.178 34.3066 966.709 33.627C966.252 32.9473 966.023 32.1387 966.023 31.2012C966.023 29.6426 966.68 28.3242 967.992 27.2461C969.316 26.168 971.004 25.6289 973.055 25.6289C975.211 25.6289 976.957 26.1855 978.293 27.2988C979.641 28.4121 980.314 29.8359 980.314 31.5703H977.045C977.045 30.6797 976.664 29.9121 975.902 29.2676C975.152 28.623 974.203 28.3008 973.055 28.3008C971.871 28.3008 970.945 28.5586 970.277 29.0742C969.609 29.5898 969.275 30.2637 969.275 31.0957C969.275 31.8809 969.586 32.4727 970.207 32.8711C970.828 33.2695 971.947 33.6504 973.564 34.0137C975.193 34.377 976.512 34.8105 977.52 35.3145C978.527 35.8184 979.271 36.4277 979.752 37.1426C980.244 37.8457 980.49 38.707 980.49 39.7266C980.49 41.4258 979.811 42.791 978.451 43.8223C977.092 44.8418 975.328 45.3516 973.16 45.3516C971.637 45.3516 970.289 45.082 969.117 44.543C967.945 44.0039 967.025 43.2539 966.357 42.293C965.701 41.3203 965.373 40.2715 965.373 39.1465H968.625C968.684 40.2363 969.117 41.1035 969.926 41.748C970.746 42.3809 971.824 42.6973 973.16 42.6973C974.391 42.6973 975.375 42.4512 976.113 41.959C976.863 41.4551 977.238 40.7871 977.238 39.9551ZM989.139 21.375V25.9805H992.689V28.4941H989.139V40.2891C989.139 41.0508 989.297 41.625 989.613 42.0117C989.93 42.3867 990.469 42.5742 991.23 42.5742C991.605 42.5742 992.121 42.5039 992.777 42.3633V45C991.922 45.2344 991.09 45.3516 990.281 45.3516C988.828 45.3516 987.732 44.9121 986.994 44.0332C986.256 43.1543 985.887 41.9062 985.887 40.2891V28.4941H982.424V25.9805H985.887V21.375H989.139Z" fill="black"/>
<path d="M1334.15 50.9297H1330.42L1344.67 13.875H1348.38L1334.15 50.9297Z" fill="black"/>
</svg>
