<svg width="1404" height="1872" viewBox="0 0 1404 1872" fill="none" xmlns="http://www.w3.org/2000/svg">
<rect width="1404" height="1872" fill="white"/>
<g clip-path="url(#clip0_306_2)">
<path d="M943.775 185H460.225C427.458 185.037 396.044 198.073 372.874 221.249C349.704 244.424 336.671 275.846 336.635 308.621V1563.38C336.671 1596.15 349.704 1627.58 372.874 1650.75C396.044 1673.93 427.458 1686.96 460.225 1687H943.775C976.542 1686.96 1007.96 1673.93 1031.13 1650.75C1054.3 1627.58 1067.33 1596.15 1067.37 1563.38V308.621C1067.33 275.846 1054.3 244.424 1031.13 221.249C1007.96 198.073 976.542 185.037 943.775 185V185ZM1031.83 1564.78C1031.84 1588.16 1022.57 1610.58 1006.06 1627.13C989.547 1643.67 967.144 1652.98 943.775 1653H460.38C437.01 1652.98 414.608 1643.67 398.096 1627.13C381.584 1610.58 372.313 1588.16 372.321 1564.78V310.306C372.313 286.93 381.584 264.507 398.096 247.965C414.608 231.423 437.01 222.115 460.38 222.086H943.775C967.144 222.115 989.547 231.423 1006.06 247.965C1022.57 264.507 1031.84 286.93 1031.83 310.306V1564.78Z" fill="black"/>
<path d="M1072 509.506H1062.73V677.941H1072V509.506Z" fill="black"/>
<path d="M341.269 395.156H332V443.06H341.269V395.156Z" fill="black"/>
<path d="M341.269 500.234H332V594.496H341.269V500.234Z" fill="black"/>
<path d="M341.269 628.492H332V724.298H341.269V628.492Z" fill="black"/>
<path d="M573.002 222.086H830.998V235.607C831 240.326 829.899 244.998 827.756 249.358C825.614 253.718 822.472 257.68 818.511 261.016C814.551 264.353 809.848 266.999 804.672 268.804C799.497 270.609 793.949 271.537 788.348 271.535H615.652C610.051 271.537 604.503 270.609 599.328 268.804C594.152 266.999 589.449 264.353 585.489 261.016C581.528 257.68 578.386 253.718 576.244 249.358C574.101 244.998 573 240.326 573.002 235.607V222.086Z" fill="black"/>
<path d="M627.258 246.811C629.369 246.814 631.434 246.19 633.19 245.018C634.496 244.138 635.591 242.979 636.395 241.625C637.2 240.271 637.694 238.755 637.842 237.186C637.989 235.618 637.787 234.036 637.25 232.556C636.713 231.075 635.854 229.732 634.735 228.623C633.248 227.129 631.349 226.112 629.281 225.702C627.737 225.394 626.143 225.432 624.615 225.814C623.087 226.196 621.662 226.912 620.445 227.912C619.227 228.911 618.246 230.168 617.573 231.593C616.9 233.017 616.551 234.573 616.552 236.148C616.552 238.974 617.673 241.683 619.668 243.682C621.664 245.682 624.371 246.807 627.196 246.811H627.258Z" fill="#2B2B29"/>
<path d="M636.342 236.272C636.343 238.062 635.813 239.813 634.82 241.302C633.826 242.792 632.413 243.953 630.76 244.639C629.106 245.326 627.286 245.506 625.53 245.158C623.774 244.81 622.161 243.949 620.894 242.684C619.621 241.421 618.755 239.806 618.405 238.047C618.055 236.288 618.239 234.464 618.932 232.81C619.612 231.153 620.771 229.737 622.259 228.74C623.748 227.744 625.499 227.214 627.289 227.216C629.692 227.227 631.995 228.181 633.701 229.874C634.542 230.713 635.208 231.71 635.662 232.808C636.115 233.907 636.346 235.084 636.342 236.272V236.272Z" fill="#1C1D22"/>
<path d="M631.707 236.272C631.706 236.939 631.557 237.598 631.271 238.201C630.986 238.804 630.571 239.336 630.056 239.76C629.54 240.184 628.938 240.488 628.291 240.652C627.645 240.816 626.97 240.834 626.315 240.707C625.445 240.524 624.646 240.095 624.013 239.471C623.379 238.839 622.949 238.032 622.778 237.153C622.609 236.28 622.7 235.378 623.04 234.557C623.375 233.731 623.951 233.025 624.693 232.533C625.559 231.945 626.603 231.679 627.644 231.78C628.685 231.882 629.658 232.345 630.394 233.089C630.811 233.507 631.142 234.004 631.367 234.55C631.592 235.096 631.708 235.681 631.707 236.272V236.272Z" fill="#25295F"/>
<path d="M670.808 217.451C669.491 217.523 668.251 218.097 667.343 219.056C666.436 220.014 665.931 221.284 665.931 222.604C665.931 223.924 666.436 225.194 667.343 226.152C668.251 227.111 669.491 227.685 670.808 227.758H732.526C733.844 227.685 735.084 227.111 735.991 226.152C736.899 225.194 737.404 223.924 737.404 222.604C737.404 221.284 736.899 220.014 735.991 219.056C735.084 218.097 733.844 217.523 732.526 217.451H670.808Z" fill="#2B2B29"/>
</g>
<defs>
<clipPath id="clip0_306_2">
<rect width="740" height="1502" fill="white" transform="translate(332 185)"/>
</clipPath>
</defs>
</svg>
